#N canvas 36 62 969 542 10;
#X declare -lib mrpeach;
#X obj 11 11 import mrpeach;
#X obj 11 64 unpackOSC;
#X obj 11 37 udpreceive 12001;
#X msg 120 37 connect localhost 12000;
#X msg 270 37 disconnect;
#X obj 120 88 udpsend;
#X floatatom 348 12 5 0 0 0 - - -;
#X msg 348 37 send /test \$1;
#X obj 348 63 packOSC;
#X msg 389 12 1;
#X msg 449 37 sendtyped /test s getnext;
#X obj 55 166 t f b;
#X obj 371 397 output~;
#X obj 91 358 osc~ 440;
#X obj 381 319 *~;
#X obj 359 256 vline~;
#X msg 357 221 1 5 \, 0 1000 5;
#X msg 64 257 45;
#X obj 52 338 mtof;
#X obj 133 155 print;
#X obj 55 126 routeOSC /state;
#X obj 16 128 print;
#X msg 87 259 48;
#X msg 124 259 52;
#X msg 165 259 53;
#X obj 558 -33 key;
#X floatatom 558 -9 5 0 0 0 - - -;
#X obj 558 15 select 32;
#X obj 64 218 select 0 1 2 3;
#X connect 1 0 20 0;
#X connect 1 0 21 0;
#X connect 2 0 1 0;
#X connect 3 0 5 0;
#X connect 4 0 5 0;
#X connect 6 0 7 0;
#X connect 7 0 8 0;
#X connect 8 0 5 0;
#X connect 9 0 7 0;
#X connect 10 0 8 0;
#X connect 11 0 28 0;
#X connect 11 1 16 0;
#X connect 13 0 14 0;
#X connect 14 0 12 0;
#X connect 14 0 12 1;
#X connect 15 0 14 1;
#X connect 16 0 15 0;
#X connect 17 0 18 0;
#X connect 18 0 13 0;
#X connect 20 0 11 0;
#X connect 20 0 19 0;
#X connect 22 0 18 0;
#X connect 23 0 18 0;
#X connect 24 0 18 0;
#X connect 25 0 26 0;
#X connect 26 0 27 0;
#X connect 27 0 10 0;
#X connect 28 0 17 0;
#X connect 28 1 22 0;
#X connect 28 2 23 0;
#X connect 28 3 24 0;
