#N canvas 0 23 1366 652 10;
#X declare -lib mrpeach;
#X obj 43 52 import mrpeach;
#X obj 43 105 unpackOSC;
#X obj 43 78 udpreceive 12001;
#X msg 152 78 connect localhost 12000;
#X msg 162 99 disconnect;
#X obj 152 129 udpsend;
#X obj 450 190 packOSC;
#X obj 58 262 t f b;
#X obj 476 486 output~;
#X msg 12 358 45;
#X obj 116 464 mtof;
#X obj 386 -112 key;
#X floatatom 426 -91 5 0 0 0 - - -;
#X obj 469 -61 select 32;
#X msg 35 360 46;
#X msg 97 360 48;
#X msg 128 362 49;
#X msg 161 362 50;
#X msg 195 364 51;
#X msg 295 363 54;
#X msg 361 363 56;
#X obj 67 307 select 0 1 2 3 4 5 6 7 8 9 10 11;
#X obj 443 439 freeverb~;
#X obj 639 501 writesf~ 2;
#X msg 666 394 open markoviser.wav;
#X msg 797 414 stop;
#X obj 590 244 vsl 15 128 0 1 0 0 empty empty empty 0 -9 0 10 -262144
-1 -1 1270 1;
#X msg 588 387 \$1 50;
#X obj 586 428 vline~;
#X obj 523 456 *~;
#X obj 486 459 *~;
#X msg 521 336 dry 0.7;
#X msg 66 360 47;
#X obj 545 -60 select 115;
#X obj 549 -31 tgl 15 0 empty empty empty 17 7 0 10 -262144 -1 -1 1
1;
#X obj 530 22 bng 15 250 50 0 empty empty empty 17 7 0 10 -262144 -1
-1;
#X floatatom 543 66 5 0 0 0 - - -;
#X obj 545 106 select 0;
#X msg 471 160 sendtyped /test s getnextnote;
#X obj 545 86 mod 4;
#X obj 530 42 counter 15;
#X obj 375 312 bng 15 250 50 0 empty empty empty 17 7 0 10 -262144
-1 -1;
#X text 571 -41 s;
#X text 483 -41 space;
#X obj 629 -60 select 116;
#X msg 672 127 sendtyped /test s getnextvalue;
#X msg 229 362 52;
#X msg 264 364 53;
#X msg 707 437 start;
#X obj 540 -1 metro 70;
#X msg 328 362 55;
#X obj 194 202 bng 15 250 50 0 empty empty empty 17 7 0 10 -262144
-1 -1;
#X obj 287 -54 spigot;
#X obj 295 -89 tgl 15 0 empty empty autoends 17 7 0 10 -262144 -1 -1
0 1;
#X obj 721 -60 select 109;
#X text 749 -39 m;
#X msg 686 149 sendtyped /test s getnextmute;
#X obj 386 5 bng 15 250 50 0 empty empty empty 17 7 0 10 -262144 -1
-1;
#X floatatom 364 35 5 0 100 0 - - -;
#X obj 807 -59 select 108;
#X text 826 -79 l;
#X msg 687 177 sendtyped /test s getnextlegato;
#X obj 92 159 routeOSC /state /value /toggle /mute /legato;
#N canvas 7 31 1347 651 kovsyn 1;
#X obj 548 -123 inlet b;
#X obj 473 464 outlet~;
#X obj 336 400 +~;
#X obj 375 406 +~;
#X obj 1191 309 *~;
#X obj 1237 61 vline~;
#X obj 1142 199 osc~ 220;
#X obj 694 56 vline~;
#X obj 470 237 +~;
#X obj 604 58 vline~;
#X obj 347 232 +~;
#X text 55 -143 freq;
#X text 550 -144 trigger;
#X obj 371 -140 inlet f;
#X text 374 -159 mute;
#X obj 566 239 +~;
#X obj 805 58 vline~;
#X floatatom 62 51 5 0 0 0 - - -;
#X obj 625 -90 bng 15 250 50 0 empty empty empty 17 7 0 10 -262144
-1 -1;
#X obj 335 202 *~ 2;
#X obj 464 210 *~ 3;
#X obj 560 212 *~ 4;
#X obj 310 174 +~;
#X obj 471 186 +~;
#X obj 563 188 +~;
#X obj 1115 149 +~;
#X obj 441 -94 +;
#X obj 54 -125 inlet f;
#X msg 604 34 \$1 5 \, 0 50 5;
#X obj 594 -24 random 5;
#X obj 659 -24 random 10;
#X obj 749 -25 random 15;
#X msg 693 32 \$1 5 \, 0 75 5;
#X msg 805 31 \$1 5 \, 0 100 5;
#X obj 658 230 +~;
#X obj 903 59 vline~;
#X obj 655 175 +~;
#X obj 847 -24 random 15;
#X msg 903 32 \$1 5 \, 0 100 5;
#X text 664 -91 detuned partials;
#X obj 474 432 +~;
#X obj 420 418 +~;
#X obj 652 203 *~ 5;
#X text 1048 87 comment;
#X msg 1200 14 0.2 2 \, 0 10 5;
#N canvas 539 156 450 300 partial1 1;
#X obj 27 22 inlet~;
#X obj 45 231 outlet~;
#X obj 237 203 *~;
#X obj 164 129 vline~;
#X obj 47 79 osc~ 220;
#X msg 150 90 1 5 \, 0 1000 5;
#X obj 179 -11 inlet f;
#X msg 241 90 1 5 \, 0 500 5;
#X msg 328 90 1 5 \, 0 250 5;
#X obj 178 27 select 0 1 2;
#X obj 164 62 bng 15 250 50 0 empty empty empty 17 7 0 10 -262144 -1
-1;
#X obj 208 59 bng 15 250 50 0 empty empty empty 17 7 0 10 -262144 -1
-1;
#X obj 260 62 bng 15 250 50 0 empty empty empty 17 7 0 10 -262144 -1
-1;
#X connect 0 0 4 0;
#X connect 2 0 1 0;
#X connect 3 0 2 1;
#X connect 4 0 2 0;
#X connect 5 0 3 0;
#X connect 6 0 9 0;
#X connect 7 0 3 0;
#X connect 8 0 3 0;
#X connect 9 0 10 0;
#X connect 9 1 11 0;
#X connect 9 2 12 0;
#X connect 10 0 5 0;
#X connect 11 0 7 0;
#X connect 12 0 8 0;
#X restore 142 233 pd partial1;
#N canvas 658 140 450 300 partial2 0;
#X obj 27 22 inlet~;
#X obj 45 231 outlet~;
#X obj 237 203 *~;
#X obj 164 129 vline~;
#X obj 47 79 osc~ 220;
#X obj 179 -11 inlet f;
#X obj 178 27 select 0 1 2;
#X obj 164 62 bng 15 250 50 0 empty empty empty 17 7 0 10 -262144 -1
-1;
#X obj 208 59 bng 15 250 50 0 empty empty empty 17 7 0 10 -262144 -1
-1;
#X obj 260 62 bng 15 250 50 0 empty empty empty 17 7 0 10 -262144 -1
-1;
#X msg 150 90 1 5 \, 0 750 5;
#X msg 241 90 1 5 \, 0 350 5;
#X msg 328 90 1 5 \, 0 100 5;
#X connect 0 0 4 0;
#X connect 2 0 1 0;
#X connect 3 0 2 1;
#X connect 4 0 2 0;
#X connect 5 0 6 0;
#X connect 6 0 7 0;
#X connect 6 1 8 0;
#X connect 6 2 9 0;
#X connect 7 0 10 0;
#X connect 8 0 11 0;
#X connect 9 0 12 0;
#X connect 10 0 3 0;
#X connect 11 0 3 0;
#X connect 12 0 3 0;
#X restore 357 255 pd partial2;
#N canvas 797 90 450 300 partial3 1;
#X obj 27 22 inlet~;
#X obj 45 231 outlet~;
#X obj 237 203 *~;
#X obj 164 129 vline~;
#X obj 47 79 osc~ 220;
#X obj 179 -11 inlet f;
#X obj 178 27 select 0 1 2;
#X obj 164 62 bng 15 250 50 0 empty empty empty 17 7 0 10 -262144 -1
-1;
#X obj 208 59 bng 15 250 50 0 empty empty empty 17 7 0 10 -262144 -1
-1;
#X obj 260 62 bng 15 250 50 0 empty empty empty 17 7 0 10 -262144 -1
-1;
#X msg 150 90 1 5 \, 0 500 5;
#X msg 241 90 0.9 5 \, 0 250 5;
#X msg 337 88 0.8 5 \, 0 150 5;
#X connect 0 0 4 0;
#X connect 2 0 1 0;
#X connect 3 0 2 1;
#X connect 4 0 2 0;
#X connect 5 0 6 0;
#X connect 6 0 7 0;
#X connect 6 1 8 0;
#X connect 6 2 9 0;
#X connect 7 0 10 0;
#X connect 8 0 11 0;
#X connect 9 0 12 0;
#X connect 10 0 3 0;
#X connect 11 0 3 0;
#X connect 12 0 3 0;
#X restore 443 264 pd partial3;
#N canvas 797 90 450 300 partial4 0;
#X obj 27 22 inlet~;
#X obj 45 231 outlet~;
#X obj 237 203 *~;
#X obj 164 129 vline~;
#X obj 47 79 osc~ 220;
#X obj 179 -11 inlet f;
#X obj 178 27 select 0 1 2;
#X obj 164 62 bng 15 250 50 0 empty empty empty 17 7 0 10 -262144 -1
-1;
#X obj 208 59 bng 15 250 50 0 empty empty empty 17 7 0 10 -262144 -1
-1;
#X obj 260 62 bng 15 250 50 0 empty empty empty 17 7 0 10 -262144 -1
-1;
#X msg 150 90 0.3 5 \, 0 150 5;
#X msg 241 90 0.2 5 \, 0 100 5;
#X msg 337 88 0.1 5 \, 0 50 5;
#X connect 0 0 4 0;
#X connect 2 0 1 0;
#X connect 3 0 2 1;
#X connect 4 0 2 0;
#X connect 5 0 6 0;
#X connect 6 0 7 0;
#X connect 6 1 8 0;
#X connect 6 2 9 0;
#X connect 7 0 10 0;
#X connect 8 0 11 0;
#X connect 9 0 12 0;
#X connect 10 0 3 0;
#X connect 11 0 3 0;
#X connect 12 0 3 0;
#X restore 554 266 pd partial4;
#N canvas 360 117 450 300 partial5 0;
#X obj 27 22 inlet~;
#X obj 45 231 outlet~;
#X obj 237 203 *~;
#X obj 164 129 vline~;
#X obj 47 79 osc~ 220;
#X obj 179 -11 inlet f;
#X obj 178 27 select 0 1 2;
#X obj 164 62 bng 15 250 50 0 empty empty empty 17 7 0 10 -262144 -1
-1;
#X obj 208 59 bng 15 250 50 0 empty empty empty 17 7 0 10 -262144 -1
-1;
#X obj 260 62 bng 15 250 50 0 empty empty empty 17 7 0 10 -262144 -1
-1;
#X msg 150 90 0.2 2 \, 0 150 2;
#X msg 241 90 0.15 5 \, 0 100 5;
#X msg 348 86 0.1 2 \, 0 50 2;
#X connect 0 0 4 0;
#X connect 2 0 1 0;
#X connect 3 0 2 1;
#X connect 4 0 2 0;
#X connect 5 0 6 0;
#X connect 6 0 7 0;
#X connect 6 1 8 0;
#X connect 6 2 9 0;
#X connect 7 0 10 0;
#X connect 8 0 11 0;
#X connect 9 0 12 0;
#X connect 10 0 3 0;
#X connect 11 0 3 0;
#X connect 12 0 3 0;
#X restore 647 265 pd partial5;
#X obj 1143 175 *~ 16;
#X connect 0 0 18 0;
#X connect 0 0 26 0;
#X connect 2 0 3 0;
#X connect 3 0 41 0;
#X connect 4 0 1 0;
#X connect 5 0 4 1;
#X connect 6 0 4 0;
#X connect 7 0 8 1;
#X connect 8 0 47 0;
#X connect 9 0 10 1;
#X connect 10 0 46 0;
#X connect 13 0 26 1;
#X connect 15 0 48 0;
#X connect 16 0 15 1;
#X connect 17 0 23 0;
#X connect 17 0 24 0;
#X connect 17 0 25 0;
#X connect 17 0 22 0;
#X connect 17 0 36 0;
#X connect 17 0 45 0;
#X connect 18 0 29 0;
#X connect 18 0 30 0;
#X connect 18 0 31 0;
#X connect 18 0 37 0;
#X connect 18 0 44 0;
#X connect 19 0 10 0;
#X connect 20 0 8 0;
#X connect 21 0 15 0;
#X connect 22 0 19 0;
#X connect 23 0 20 0;
#X connect 24 0 21 0;
#X connect 25 0 50 0;
#X connect 26 0 45 1;
#X connect 26 0 46 1;
#X connect 26 0 47 1;
#X connect 26 0 48 1;
#X connect 26 0 49 1;
#X connect 27 0 17 0;
#X connect 28 0 9 0;
#X connect 29 0 28 0;
#X connect 30 0 32 0;
#X connect 31 0 33 0;
#X connect 32 0 7 0;
#X connect 33 0 16 0;
#X connect 34 0 49 0;
#X connect 35 0 34 1;
#X connect 36 0 42 0;
#X connect 37 0 38 0;
#X connect 38 0 35 0;
#X connect 40 0 1 0;
#X connect 41 0 40 0;
#X connect 42 0 34 0;
#X connect 44 0 5 0;
#X connect 45 0 2 0;
#X connect 46 0 2 1;
#X connect 47 0 3 1;
#X connect 48 0 41 1;
#X connect 49 0 40 1;
#X connect 50 0 6 0;
#X restore 375 397 pd kovsyn;
#X msg 930 98 close;
#X msg 940 123 info;
#N canvas 722 95 441 343 ANALOG-INPUT 0;
#X obj 121 70 r \$0-arduino-out;
#X obj 121 108 spigot 0;
#X obj 183 105 tgl 20 0 empty empty empty 0 -6 0 8 -258699 -1 -1 1
1;
#X text 30 24 Analog Inputs of the Arduino-Board:;
#X text 211 107 <- enable analog inputs;
#X text 25 283 NOTE: connect the analog pins that you don't use to
the ground \, if you want to avoid flickering of the values !;
#X floatatom 22 226 5 0 0 3 a0 - -;
#X floatatom 68 226 5 0 0 3 a1 - -;
#X floatatom 114 226 5 0 0 3 a2 - -;
#X floatatom 160 226 5 0 0 3 a3 - -;
#X floatatom 206 226 5 0 0 3 a4 - -;
#X floatatom 252 226 5 0 0 3 a5 - -;
#X floatatom 298 226 5 0 0 3 a6 - -;
#X floatatom 344 226 5 0 0 3 a7 - -;
#X obj 121 147 route analog;
#X obj 121 169 route 0 1 2 3 4 5 6 7;
#N canvas 0 22 499 396 display 0;
#X obj 6 7 inlet;
#X obj 6 28 mapping/resample 100;
#X obj 6 50 outlet;
#X obj 54 50 inlet;
#X obj 54 71 mapping/resample 100;
#X obj 54 93 outlet;
#X obj 103 93 inlet;
#X obj 103 114 mapping/resample 100;
#X obj 103 136 outlet;
#X obj 151 136 inlet;
#X obj 151 157 mapping/resample 100;
#X obj 151 179 outlet;
#X obj 200 179 inlet;
#X obj 200 200 mapping/resample 100;
#X obj 200 222 outlet;
#X obj 247 222 inlet;
#X obj 247 243 mapping/resample 100;
#X obj 247 265 outlet;
#X obj 295 265 inlet;
#X obj 295 286 mapping/resample 100;
#X obj 295 308 outlet;
#X obj 345 308 inlet;
#X obj 345 329 mapping/resample 100;
#X obj 345 351 outlet;
#X connect 0 0 1 0;
#X connect 1 0 2 0;
#X connect 3 0 4 0;
#X connect 4 0 5 0;
#X connect 6 0 7 0;
#X connect 7 0 8 0;
#X connect 9 0 10 0;
#X connect 10 0 11 0;
#X connect 12 0 13 0;
#X connect 13 0 14 0;
#X connect 15 0 16 0;
#X connect 16 0 17 0;
#X connect 18 0 19 0;
#X connect 19 0 20 0;
#X connect 21 0 22 0;
#X connect 22 0 23 0;
#X restore 45 200 pd display values without pegging the CPU;
#X obj 22 267 s a0;
#X obj 65 267 s a1;
#X connect 0 0 1 0;
#X connect 1 0 14 0;
#X connect 2 0 1 1;
#X connect 6 0 17 0;
#X connect 7 0 18 0;
#X connect 14 0 15 0;
#X connect 15 0 16 0;
#X connect 15 1 16 1;
#X connect 15 2 16 2;
#X connect 15 3 16 3;
#X connect 15 4 16 4;
#X connect 15 5 16 5;
#X connect 15 6 16 6;
#X connect 15 7 16 7;
#X connect 16 0 6 0;
#X connect 16 1 7 0;
#X connect 16 2 8 0;
#X connect 16 3 9 0;
#X connect 16 4 10 0;
#X connect 16 5 11 0;
#X connect 16 6 12 0;
#X connect 16 7 13 0;
#X restore 955 364 pd ANALOG-INPUT;
#X text 993 150 <- list devices;
#X obj 1013 5 send \$0-arduino-out;
#X obj 1013 -39 receive \$0-arduino;
#X obj 898 223 send \$0-arduino;
#X msg 940 149 devices;
#X text 974 123 <- info for current connection;
#X msg 940 175 version;
#X msg 913 78 open 1;
#N canvas 0 22 467 240 ver 0;
#X obj 250 100 cnv 15 145 17 empty \$0-version_cnv empty 4 10 0 12
-203904 -1 0;
#X obj 23 157 send \$0-version_cnv;
#X msg 23 132 label \$1;
#X obj 23 52 zexy/makesymbol firmata_version_%s.%s;
#X obj 48 103 symbol;
#X obj 38 77 loadbang;
#X msg 96 78 bang;
#X obj 23 29 route version;
#X obj 23 6 receive \$0-arduino-out;
#X connect 2 0 1 0;
#X connect 3 0 2 0;
#X connect 4 0 2 0;
#X connect 5 0 4 0;
#X connect 6 0 4 0;
#X connect 7 0 3 0;
#X connect 8 0 7 0;
#X coords 0 -1 1 1 145 17 1 250 100;
#X restore 1007 223 pd ver;
#X text 992 175 <- get protocol version;
#X text 992 200 <- get firmware version;
#X msg 940 200 firmware;
#X text 961 76 select the serial port;
#X text 981 98 close the serial port;
#X obj 1012 -16 arduino 1;
#X obj 316 -8 r a0;
#X floatatom 316 65 5 0 0 0 - - -;
#X obj 365 54 / 100;
#X obj 416 28 r a1;
#X floatatom 408 71 5 0 0 0 - - -;
#X msg 243 126 sendtyped /lerp1 f \$1;
#X msg 388 132 sendtyped /lerp2 f \$1;
#X obj 492 20 bng 15 250 50 0 empty empty empty 17 7 0 10 -262144 -1
-1;
#X floatatom 470 50 5 0 100 0 - - -;
#X obj 473 78 / 100;
#X obj 289 270 select 0;
#X obj 410 310 bng 15 250 50 0 empty empty empty 17 7 0 10 -262144
-1 -1;
#X text 434 309 todo: some notes are choked;
#X obj 416 49 spigot;
#X obj 455 33 tgl 15 0 empty empty empty 17 7 0 10 -262144 -1 -1 1
1;
#X obj 318 34 spigot;
#X obj 362 -5 tgl 15 0 empty empty empty 17 7 0 10 -262144 -1 -1 1
1;
#X floatatom 602 -15 5 0 0 0 - - -;
#X msg 607 222 0.1;
#X obj 535 202 loadbang;
#X obj 420 5 + 70;
#X obj 407 -25 * -10;
#X obj 312 84 clip 0 0.8;
#X obj 315 104 * 1.25;
#X obj 393 92 clip 0 0.8;
#X obj 392 112 * 1.25;
#X connect 1 0 62 0;
#X connect 2 0 1 0;
#X connect 3 0 5 0;
#X connect 4 0 5 0;
#X connect 6 0 5 0;
#X connect 7 0 21 0;
#X connect 9 0 10 0;
#X connect 10 0 63 0;
#X connect 11 0 12 0;
#X connect 12 0 13 0;
#X connect 12 0 33 0;
#X connect 12 0 44 0;
#X connect 12 0 54 0;
#X connect 12 0 59 0;
#X connect 13 0 38 0;
#X connect 14 0 10 0;
#X connect 15 0 10 0;
#X connect 16 0 10 0;
#X connect 17 0 10 0;
#X connect 18 0 10 0;
#X connect 19 0 10 0;
#X connect 20 0 10 0;
#X connect 21 0 9 0;
#X connect 21 1 14 0;
#X connect 21 2 32 0;
#X connect 21 3 15 0;
#X connect 21 4 16 0;
#X connect 21 5 17 0;
#X connect 21 6 18 0;
#X connect 21 7 46 0;
#X connect 21 8 47 0;
#X connect 21 9 19 0;
#X connect 21 10 50 0;
#X connect 21 11 20 0;
#X connect 22 0 30 0;
#X connect 22 1 29 0;
#X connect 24 0 23 0;
#X connect 25 0 23 0;
#X connect 26 0 27 0;
#X connect 27 0 28 0;
#X connect 28 0 29 1;
#X connect 28 0 30 1;
#X connect 29 0 8 1;
#X connect 29 0 23 1;
#X connect 30 0 8 0;
#X connect 30 0 23 0;
#X connect 31 0 22 0;
#X connect 32 0 10 0;
#X connect 33 0 34 0;
#X connect 34 0 49 0;
#X connect 35 0 40 0;
#X connect 36 0 39 0;
#X connect 37 0 38 0;
#X connect 37 0 45 0;
#X connect 37 0 56 0;
#X connect 37 0 58 0;
#X connect 37 0 61 0;
#X connect 37 0 83 0;
#X connect 37 0 86 0;
#X connect 37 0 90 0;
#X connect 38 0 6 0;
#X connect 39 0 37 0;
#X connect 40 0 36 0;
#X connect 41 0 63 2;
#X connect 44 0 45 0;
#X connect 45 0 6 0;
#X connect 46 0 10 0;
#X connect 47 0 10 0;
#X connect 48 0 23 0;
#X connect 49 0 35 0;
#X connect 50 0 10 0;
#X connect 51 0 52 0;
#X connect 52 0 34 0;
#X connect 53 0 52 1;
#X connect 54 0 56 0;
#X connect 56 0 6 0;
#X connect 57 0 58 0;
#X connect 58 0 84 0;
#X connect 59 0 61 0;
#X connect 61 0 6 0;
#X connect 62 0 7 0;
#X connect 62 1 39 1;
#X connect 62 2 51 0;
#X connect 62 3 63 1;
#X connect 62 4 92 0;
#X connect 63 0 22 0;
#X connect 63 0 22 1;
#X connect 64 0 70 0;
#X connect 65 0 70 0;
#X connect 69 0 81 0;
#X connect 71 0 70 0;
#X connect 73 0 70 0;
#X connect 74 0 70 0;
#X connect 78 0 70 0;
#X connect 81 0 68 0;
#X connect 82 0 97 0;
#X connect 83 0 104 0;
#X connect 84 0 83 0;
#X connect 85 0 95 0;
#X connect 86 0 103 0;
#X connect 86 0 106 0;
#X connect 87 0 6 0;
#X connect 88 0 6 0;
#X connect 89 0 90 0;
#X connect 90 0 91 0;
#X connect 91 0 86 0;
#X connect 92 0 41 0;
#X connect 92 1 93 0;
#X connect 93 0 63 2;
#X connect 95 0 86 0;
#X connect 96 0 95 1;
#X connect 97 0 83 0;
#X connect 98 0 97 1;
#X connect 99 0 49 1;
#X connect 100 0 26 0;
#X connect 101 0 100 0;
#X connect 101 0 31 0;
#X connect 102 0 99 0;
#X connect 103 0 102 0;
#X connect 104 0 105 0;
#X connect 105 0 87 0;
#X connect 106 0 107 0;
#X connect 107 0 88 0;
