#N canvas 217 23 1124 658 10;
#X declare -lib mrpeach;
#X obj 43 52 import mrpeach;
#X obj 43 105 unpackOSC;
#X obj 43 78 udpreceive 12001;
#X msg 152 78 connect localhost 12000;
#X msg 302 78 disconnect;
#X obj 152 129 udpsend;
#X obj 450 190 packOSC;
#X obj 87 207 t f b;
#X obj 468 490 output~;
#X msg 41 303 45;
#X obj 145 409 mtof;
#X obj 386 -112 key;
#X floatatom 426 -91 5 0 0 0 - - -;
#X obj 469 -61 select 32;
#X msg 64 305 46;
#X msg 126 305 48;
#X msg 157 307 49;
#X msg 190 307 50;
#X msg 224 309 51;
#X msg 324 308 54;
#X msg 390 308 56;
#X obj 96 252 select 0 1 2 3 4 5 6 7 8 9 10 11;
#X obj 429 383 freeverb~;
#X obj 639 501 writesf~ 2;
#X msg 666 394 open markoviser.wav;
#X msg 797 414 stop;
#X obj 590 244 vsl 15 128 0 1 0 0 empty empty empty 0 -9 0 10 -262144
-1 -1 1200 1;
#X msg 588 387 \$1 50;
#X obj 586 428 vline~;
#X obj 523 456 *~;
#X obj 486 459 *~;
#X msg 521 336 dry 0.7;
#X msg 95 305 47;
#X obj 545 -60 select 115;
#X obj 549 -31 tgl 15 0 empty empty empty 17 7 0 10 -262144 -1 -1 0
1;
#X obj 530 22 bng 15 250 50 0 empty empty empty 17 7 0 10 -262144 -1
-1;
#X floatatom 543 66 5 0 0 0 - - -;
#X obj 545 106 select 0;
#X msg 488 151 sendtyped /test s getnextnote;
#X obj 545 86 mod 4;
#X obj 530 42 counter 15;
#X obj 446 224 bng 15 250 50 0 empty empty empty 17 7 0 10 -262144
-1 -1;
#X text 571 -41 s;
#X text 483 -41 space;
#X obj 629 -60 select 116;
#X msg 685 153 sendtyped /test s getnextvalue;
#X text 658 -40 t;
#X msg 258 307 52;
#X msg 293 309 53;
#X msg 707 437 start;
#N canvas 795 77 450 300 droner 0;
#X obj 100 136 phasor~;
#X obj 163 138 phasor~;
#X obj 113 183 *~;
#X obj 116 97 - 220;
#X obj 66 37 inlet;
#X obj 91 253 outlet~;
#X obj 231 18 vsl 15 128 0 1 0 0 empty empty empty 0 -9 0 10 -262144
-1 -1 0 1;
#X msg 229 161 \$1 50;
#X obj 227 202 vline~;
#X obj 191 230 *~;
#X connect 0 0 2 0;
#X connect 1 0 2 1;
#X connect 2 0 9 0;
#X connect 3 0 1 0;
#X connect 4 0 0 0;
#X connect 4 0 3 0;
#X connect 6 0 7 0;
#X connect 7 0 8 0;
#X connect 8 0 9 1;
#X connect 9 0 5 0;
#X restore 298 407 pd droner;
#X obj 540 -1 metro 70;
#X msg 357 307 55;
#X obj 194 202 bng 15 250 50 0 empty empty empty 17 7 0 10 -262144
-1 -1;
#X obj 287 -54 spigot;
#X obj 295 -89 tgl 15 0 empty empty autoends 17 7 0 10 -262144 -1 -1
0 1;
#X obj 721 -60 select 109;
#X text 749 -39 m;
#X msg 882 152 sendtyped /test s getnextmute;
#X obj 87 167 routeOSC /state /value /toggle /mute;
#N canvas 7 31 1194 601 kovssyn 1;
#X obj 27 -98 inlet f;
#X obj 355 -90 inlet b;
#X obj 275 411 outlet~;
#X obj 240 264 *~;
#X obj 218 201 vline~;
#X msg 189 145 1 5 \, 0 1000 5;
#X obj 11 144 osc~ 220;
#X obj 273 91 * 2;
#X obj 274 289 +~;
#X obj 327 257 *~;
#X obj 420 192 vline~;
#X obj 289 145 osc~ 220;
#X msg 401 150 1 5 \, 0 500 5;
#X obj 508 217 *~;
#X obj 534 184 vline~;
#X obj 481 164 osc~ 220;
#X obj 467 99 * 3;
#X obj 295 322 +~;
#X msg 555 139 1 5 \, 0 250 5;
#X obj 884 163 *~;
#X obj 933 -39 vline~;
#X obj 836 90 osc~ 220;
#X text 977 -70 strike noise - VERY sensitive;
#X msg 980 -94 0.2 2 \, 0 10 5;
#X obj 579 -26 vline~;
#X obj 473 126 +~;
#X text 667 -58 detuned partial;
#X obj 433 -16 vline~;
#X obj 323 118 +~;
#X msg 582 -58 15 0 \, 0 100;
#X msg 436 -48 5 0 \, 0 50;
#X text 28 -116 freq;
#X text 357 -111 trigger;
#X obj 228 -118 inlet f;
#X text 228 -137 mute;
#X floatatom 230 -82 5 0 0 0 - - -;
#X obj 227 -57 select 0 1;
#X msg 117 122 1 5 \, 0 150 5;
#X msg 358 118 1 5 \, 0 100;
#X msg 537 92 1 5 \, 0 50;
#X obj 681 202 *~;
#X obj 707 169 vline~;
#X obj 654 149 osc~ 220;
#X obj 646 111 +~;
#X obj 304 359 +~;
#X msg 710 77 0.2 5 \, 0 50;
#X msg 753 115 0.3 5 \, 0 50 5;
#X msg 765 -58 5 0 \, 0 30;
#X obj 744 -5 vline~;
#X floatatom 39 -49 5 0 0 0 - - -;
#X obj 640 84 * 4;
#X obj 837 66 * 5;
#X connect 0 0 49 0;
#X connect 1 0 18 0;
#X connect 1 0 29 0;
#X connect 1 0 30 0;
#X connect 1 0 47 0;
#X connect 1 0 23 0;
#X connect 3 0 8 0;
#X connect 4 0 3 1;
#X connect 5 0 4 0;
#X connect 6 0 3 0;
#X connect 7 0 28 0;
#X connect 8 0 17 0;
#X connect 9 0 8 1;
#X connect 10 0 9 1;
#X connect 11 0 9 0;
#X connect 12 0 10 0;
#X connect 13 0 17 1;
#X connect 14 0 13 1;
#X connect 15 0 13 0;
#X connect 16 0 25 0;
#X connect 17 0 44 0;
#X connect 18 0 14 0;
#X connect 19 0 2 0;
#X connect 20 0 19 1;
#X connect 21 0 19 0;
#X connect 23 0 20 0;
#X connect 24 0 25 1;
#X connect 25 0 15 0;
#X connect 27 0 28 1;
#X connect 28 0 11 0;
#X connect 29 0 24 0;
#X connect 30 0 27 0;
#X connect 33 0 35 0;
#X connect 35 0 36 0;
#X connect 36 0 5 0;
#X connect 36 0 12 0;
#X connect 36 0 18 0;
#X connect 36 0 46 0;
#X connect 36 1 37 0;
#X connect 36 1 38 0;
#X connect 36 1 39 0;
#X connect 36 1 45 0;
#X connect 37 0 5 0;
#X connect 38 0 10 0;
#X connect 39 0 14 0;
#X connect 40 0 44 1;
#X connect 41 0 40 1;
#X connect 42 0 40 0;
#X connect 43 0 42 0;
#X connect 44 0 2 0;
#X connect 45 0 41 0;
#X connect 46 0 41 0;
#X connect 47 0 48 0;
#X connect 48 0 43 1;
#X connect 49 0 6 0;
#X connect 49 0 7 0;
#X connect 49 0 16 0;
#X connect 49 0 50 0;
#X connect 49 0 51 0;
#X connect 50 0 43 0;
#X connect 51 0 21 0;
#X restore 404 342 pd kovssyn;
#X obj 408 91 bng 15 250 50 0 empty empty empty 17 7 0 10 -262144 -1
-1;
#X floatatom 388 121 5 0 99 0 - - -;
#X msg 325 153 sendtyped /lerp f \$1;
#X connect 1 0 59 0;
#X connect 2 0 1 0;
#X connect 3 0 5 0;
#X connect 4 0 5 0;
#X connect 6 0 5 0;
#X connect 7 0 21 0;
#X connect 7 1 41 0;
#X connect 9 0 10 0;
#X connect 10 0 60 0;
#X connect 10 0 50 0;
#X connect 11 0 12 0;
#X connect 12 0 13 0;
#X connect 12 0 33 0;
#X connect 12 0 44 0;
#X connect 12 0 56 0;
#X connect 13 0 38 0;
#X connect 14 0 10 0;
#X connect 15 0 10 0;
#X connect 16 0 10 0;
#X connect 17 0 10 0;
#X connect 18 0 10 0;
#X connect 19 0 10 0;
#X connect 20 0 10 0;
#X connect 21 0 9 0;
#X connect 21 1 14 0;
#X connect 21 2 32 0;
#X connect 21 3 15 0;
#X connect 21 4 16 0;
#X connect 21 5 17 0;
#X connect 21 6 18 0;
#X connect 21 7 47 0;
#X connect 21 8 48 0;
#X connect 21 9 19 0;
#X connect 21 10 52 0;
#X connect 21 11 20 0;
#X connect 22 0 30 0;
#X connect 22 1 29 0;
#X connect 24 0 23 0;
#X connect 25 0 23 0;
#X connect 26 0 27 0;
#X connect 27 0 28 0;
#X connect 28 0 29 1;
#X connect 28 0 30 1;
#X connect 29 0 8 1;
#X connect 29 0 23 1;
#X connect 30 0 8 0;
#X connect 30 0 23 0;
#X connect 31 0 22 0;
#X connect 32 0 10 0;
#X connect 33 0 34 0;
#X connect 34 0 51 0;
#X connect 35 0 40 0;
#X connect 36 0 39 0;
#X connect 37 0 38 0;
#X connect 37 0 45 0;
#X connect 37 0 58 0;
#X connect 38 0 6 0;
#X connect 39 0 37 0;
#X connect 40 0 36 0;
#X connect 41 0 60 2;
#X connect 44 0 45 0;
#X connect 45 0 6 0;
#X connect 47 0 10 0;
#X connect 48 0 10 0;
#X connect 49 0 23 0;
#X connect 50 0 22 0;
#X connect 50 0 22 1;
#X connect 51 0 35 0;
#X connect 52 0 10 0;
#X connect 53 0 54 0;
#X connect 54 0 34 0;
#X connect 55 0 54 1;
#X connect 56 0 58 0;
#X connect 58 0 6 0;
#X connect 59 0 7 0;
#X connect 59 1 39 1;
#X connect 59 2 53 0;
#X connect 59 3 60 1;
#X connect 60 0 22 0;
#X connect 60 0 22 1;
#X connect 61 0 62 0;
#X connect 62 0 63 0;
#X connect 63 0 6 0;
