#N canvas 217 23 1061 652 10;
#X declare -lib mrpeach;
#X obj 43 52 import mrpeach;
#X obj 43 105 unpackOSC;
#X obj 43 78 udpreceive 12001;
#X msg 152 78 connect localhost 12000;
#X msg 302 78 disconnect;
#X obj 152 129 udpsend;
#X floatatom 380 53 5 0 0 0 - - -;
#X msg 380 78 send /test \$1;
#X obj 382 169 packOSC;
#X msg 421 53 1;
#X obj 87 207 t f b;
#X obj 468 490 output~;
#X msg 41 303 45;
#X obj 145 409 mtof;
#X obj 165 196 print;
#X obj 386 -112 key;
#X floatatom 426 -91 5 0 0 0 - - -;
#X obj 469 -61 select 32;
#X msg 64 305 46;
#X msg 126 305 48;
#X msg 157 307 49;
#X msg 190 307 50;
#X msg 224 309 51;
#X msg 258 307 52;
#X msg 293 309 53;
#X msg 324 308 54;
#X msg 357 307 55;
#X msg 390 308 56;
#X obj 96 252 select 0 1 2 3 4 5 6 7 8 9 10 11;
#N canvas 426 92 826 523 kovsyn 1;
#X obj 29 13 inlet f;
#X obj 122 10 inlet b;
#X obj 138 375 outlet~;
#X obj 120 261 *~;
#X obj 98 198 vline~;
#X msg 69 142 1 5 \, 0 1000 5;
#X obj 11 144 osc~ 220;
#X obj 193 119 * 2;
#X obj 154 286 +~;
#X obj 207 254 *~;
#X obj 300 189 vline~;
#X obj 197 142 osc~ 220;
#X msg 260 144 1 5 \, 0 500 5;
#X obj 388 214 *~;
#X obj 414 181 vline~;
#X obj 361 144 osc~ 220;
#X obj 365 123 * 3;
#X obj 175 319 +~;
#X msg 426 124 1 5 \, 0 250 5;
#X obj 544 214 *~;
#X obj 570 181 vline~;
#X obj 517 144 osc~ 220;
#X obj 518 120 * 5;
#X msg 617 126 0.5 2 \, 0 10 5;
#X text 614 150 strike noise - VERY sensitive;
#X connect 0 0 6 0;
#X connect 0 0 7 0;
#X connect 0 0 16 0;
#X connect 0 0 23 0;
#X connect 0 0 22 0;
#X connect 1 0 5 0;
#X connect 1 0 12 0;
#X connect 1 0 18 0;
#X connect 3 0 8 0;
#X connect 4 0 3 1;
#X connect 5 0 4 0;
#X connect 6 0 3 0;
#X connect 7 0 11 0;
#X connect 8 0 17 0;
#X connect 9 0 8 1;
#X connect 10 0 9 1;
#X connect 11 0 9 0;
#X connect 12 0 10 0;
#X connect 13 0 17 1;
#X connect 14 0 13 1;
#X connect 15 0 13 0;
#X connect 16 0 15 0;
#X connect 17 0 2 0;
#X connect 18 0 14 0;
#X connect 19 0 2 0;
#X connect 20 0 19 1;
#X connect 21 0 19 0;
#X connect 22 0 21 0;
#X connect 23 0 20 0;
#X restore 404 342 pd kovsyn;
#X obj 429 383 freeverb~;
#X obj 639 501 writesf~ 2;
#X msg 666 394 open markoviser.wav;
#X msg 707 437 start;
#X msg 797 414 stop;
#X obj 562 244 vsl 15 128 0 1 0 0 empty empty empty 0 -9 0 10 -262144
-1 -1 5300 1;
#X msg 561 387 \$1 50;
#X obj 559 428 vline~;
#X obj 523 456 *~;
#X obj 486 459 *~;
#X msg 498 351 dry 0.7;
#X msg 95 305 47;
#X obj 545 -60 select 115;
#X obj 549 -31 tgl 15 0 empty empty empty 17 7 0 10 -262144 -1 -1 0
1;
#X obj 530 22 bng 15 250 50 0 empty empty empty 17 7 0 10 -262144 -1
-1;
#X floatatom 543 66 5 0 0 0 - - -;
#X obj 545 106 select 0;
#X obj 540 -1 metro 50;
#X msg 492 138 sendtyped /test s getnextnote;
#X obj 545 86 mod 4;
#X obj 530 42 counter 15;
#X obj 446 224 bng 15 250 50 0 empty empty empty 17 7 0 10 -262144
-1 -1;
#X text 571 -41 s;
#X text 483 -41 space;
#X text 717 -30 t;
#X obj 629 -60 select 116;
#X msg 691 139 sendtyped /test s getnextvalue;
#X obj 87 167 routeOSC /state /value;
#X obj 212 198 print;
#X connect 1 0 57 0;
#X connect 2 0 1 0;
#X connect 3 0 5 0;
#X connect 4 0 5 0;
#X connect 6 0 7 0;
#X connect 7 0 8 0;
#X connect 8 0 5 0;
#X connect 9 0 7 0;
#X connect 10 0 28 0;
#X connect 10 1 51 0;
#X connect 12 0 13 0;
#X connect 13 0 29 0;
#X connect 15 0 16 0;
#X connect 16 0 17 0;
#X connect 16 0 42 0;
#X connect 16 0 55 0;
#X connect 17 0 48 0;
#X connect 18 0 13 0;
#X connect 19 0 13 0;
#X connect 20 0 13 0;
#X connect 21 0 13 0;
#X connect 22 0 13 0;
#X connect 23 0 13 0;
#X connect 24 0 13 0;
#X connect 25 0 13 0;
#X connect 26 0 13 0;
#X connect 27 0 13 0;
#X connect 28 0 12 0;
#X connect 28 1 18 0;
#X connect 28 2 41 0;
#X connect 28 3 19 0;
#X connect 28 4 20 0;
#X connect 28 5 21 0;
#X connect 28 6 22 0;
#X connect 28 7 23 0;
#X connect 28 8 24 0;
#X connect 28 9 25 0;
#X connect 28 10 26 0;
#X connect 28 11 27 0;
#X connect 29 0 30 0;
#X connect 29 0 30 1;
#X connect 30 0 39 0;
#X connect 30 1 38 0;
#X connect 32 0 31 0;
#X connect 33 0 31 0;
#X connect 34 0 31 0;
#X connect 35 0 36 0;
#X connect 36 0 37 0;
#X connect 37 0 38 1;
#X connect 37 0 39 1;
#X connect 38 0 11 1;
#X connect 38 0 31 1;
#X connect 39 0 11 0;
#X connect 39 0 31 0;
#X connect 40 0 30 0;
#X connect 41 0 13 0;
#X connect 42 0 43 0;
#X connect 43 0 47 0;
#X connect 44 0 50 0;
#X connect 45 0 49 0;
#X connect 46 0 48 0;
#X connect 47 0 44 0;
#X connect 48 0 8 0;
#X connect 49 0 46 0;
#X connect 50 0 45 0;
#X connect 51 0 29 1;
#X connect 55 0 56 0;
#X connect 56 0 8 0;
#X connect 57 0 10 0;
#X connect 57 0 14 0;
#X connect 57 1 58 0;
#X connect 57 1 49 1;
