#N canvas 56 62 969 542 10;
#X declare -lib mrpeach;
#X obj 11 11 import mrpeach;
#X obj 11 64 unpackOSC;
#X obj 11 37 udpreceive 12001;
#X msg 120 37 connect localhost 12000;
#X msg 270 37 disconnect;
#X obj 120 88 udpsend;
#X floatatom 348 12 5 0 0 0 - - -;
#X msg 348 37 send /test \$1;
#X obj 348 63 packOSC;
#X msg 389 12 1;
#X msg 449 37 sendtyped /test s getnext;
#X obj 55 166 t f b;
#X obj 540 410 output~;
#X msg 9 262 45;
#X obj 113 368 mtof;
#X obj 133 155 print;
#X obj 55 126 routeOSC /state;
#X obj 16 128 print;
#X obj 558 -33 key;
#X floatatom 558 -9 5 0 0 0 - - -;
#X obj 558 15 select 32;
#X msg 32 264 46;
#X msg 63 264 47;
#X msg 94 264 48;
#X msg 125 266 49;
#X msg 158 266 50;
#X msg 192 268 51;
#X msg 226 266 52;
#X msg 261 268 53;
#X msg 292 267 54;
#X msg 325 266 55;
#X msg 358 267 56;
#X obj 64 211 select 0 1 2 3 4 5 6 7 8 9 10 11;
#N canvas 747 53 573 517 kovsyn 1;
#X obj 29 13 inlet f;
#X obj 122 10 inlet b;
#X obj 138 375 outlet~;
#X obj 120 261 *~;
#X obj 98 198 vline~;
#X msg 89 144 1 5 \, 0 1000 5;
#X obj 18 142 osc~ 220;
#X obj 177 96 * 2;
#X obj 154 286 +~;
#X obj 219 252 *~;
#X obj 300 189 vline~;
#X obj 197 142 osc~ 220;
#X msg 260 144 1 5 \, 0 500 5;
#X obj 370 228 *~;
#X obj 414 155 vline~;
#X obj 334 99 osc~ 220;
#X obj 276 85 * 3;
#X obj 175 319 +~;
#X msg 426 98 1 5 \, 0 250 5;
#X connect 0 0 6 0;
#X connect 0 0 7 0;
#X connect 0 0 16 0;
#X connect 1 0 5 0;
#X connect 1 0 12 0;
#X connect 1 0 18 0;
#X connect 3 0 8 0;
#X connect 4 0 3 1;
#X connect 5 0 4 0;
#X connect 6 0 3 0;
#X connect 7 0 11 0;
#X connect 8 0 17 0;
#X connect 9 0 8 1;
#X connect 10 0 9 1;
#X connect 11 0 9 0;
#X connect 12 0 10 0;
#X connect 13 0 17 1;
#X connect 14 0 13 1;
#X connect 15 0 13 0;
#X connect 16 0 15 0;
#X connect 17 0 2 0;
#X connect 18 0 14 0;
#X restore 543 265 pd kovsyn;
#X connect 1 0 16 0;
#X connect 1 0 17 0;
#X connect 2 0 1 0;
#X connect 3 0 5 0;
#X connect 4 0 5 0;
#X connect 6 0 7 0;
#X connect 7 0 8 0;
#X connect 8 0 5 0;
#X connect 9 0 7 0;
#X connect 10 0 8 0;
#X connect 11 0 32 0;
#X connect 11 1 33 1;
#X connect 13 0 14 0;
#X connect 14 0 33 0;
#X connect 16 0 11 0;
#X connect 16 0 15 0;
#X connect 18 0 19 0;
#X connect 19 0 20 0;
#X connect 20 0 10 0;
#X connect 21 0 14 0;
#X connect 22 0 14 0;
#X connect 23 0 14 0;
#X connect 24 0 14 0;
#X connect 25 0 14 0;
#X connect 26 0 14 0;
#X connect 27 0 14 0;
#X connect 28 0 14 0;
#X connect 29 0 14 0;
#X connect 30 0 14 0;
#X connect 31 0 14 0;
#X connect 32 0 13 0;
#X connect 32 1 21 0;
#X connect 32 2 22 0;
#X connect 32 3 23 0;
#X connect 32 4 24 0;
#X connect 32 5 25 0;
#X connect 32 6 26 0;
#X connect 32 7 27 0;
#X connect 32 8 28 0;
#X connect 32 9 29 0;
#X connect 32 10 30 0;
#X connect 32 11 31 0;
#X connect 33 0 12 0;
#X connect 33 0 12 1;
