#N canvas 206 81 553 478 10;
#X declare -lib mrpeach;
#X obj 38 34 import mrpeach;
#X obj 58 144 unpackOSC;
#X obj 56 186 print;
#X obj 55 98 udpreceive 12001;
#X msg 208 45 connect localhost 12000;
#X msg 238 76 disconnect;
#X obj 199 186 udpsend;
#X floatatom 278 107 5 0 0 0 - - -;
#X msg 279 134 send /test \$1;
#X obj 280 164 packOSC;
#X msg 329 104 1;
#X msg 393 135 sendtyped /test s getnext;
#X connect 1 0 2 0;
#X connect 3 0 1 0;
#X connect 4 0 6 0;
#X connect 5 0 6 0;
#X connect 7 0 8 0;
#X connect 8 0 9 0;
#X connect 9 0 6 0;
#X connect 10 0 8 0;
#X connect 11 0 9 0;
