#N canvas 36 62 969 542 10;
#X declare -lib mrpeach;
#X obj 11 11 import mrpeach;
#X obj 11 64 unpackOSC;
#X obj 11 37 udpreceive 12001;
#X msg 120 37 connect localhost 12000;
#X msg 270 37 disconnect;
#X obj 120 88 udpsend;
#X floatatom 348 12 5 0 0 0 - - -;
#X msg 348 37 send /test \$1;
#X obj 348 63 packOSC;
#X msg 389 12 1;
#X msg 449 37 sendtyped /test s getnext;
#X obj 55 166 t f b;
#X obj 540 410 output~;
#X obj 550 332 *~;
#X obj 528 269 vline~;
#X msg 526 234 1 5 \, 0 1000 5;
#X msg 9 262 45;
#X obj 113 368 mtof;
#X obj 133 155 print;
#X obj 55 126 routeOSC /state;
#X obj 16 128 print;
#X obj 558 -33 key;
#X floatatom 558 -9 5 0 0 0 - - -;
#X obj 558 15 select 32;
#X obj 152 388 osc~ 220;
#X obj 64 211 select 0 1 2 3 4 5 6 7 8 9 10 11;
#X msg 32 264 46;
#X msg 63 264 47;
#X msg 94 264 48;
#X msg 125 266 49;
#X msg 158 266 50;
#X msg 192 268 51;
#X msg 226 266 52;
#X msg 261 268 53;
#X msg 292 267 54;
#X msg 325 266 55;
#X msg 358 267 56;
#X connect 1 0 19 0;
#X connect 1 0 20 0;
#X connect 2 0 1 0;
#X connect 3 0 5 0;
#X connect 4 0 5 0;
#X connect 6 0 7 0;
#X connect 7 0 8 0;
#X connect 8 0 5 0;
#X connect 9 0 7 0;
#X connect 10 0 8 0;
#X connect 11 0 25 0;
#X connect 11 1 15 0;
#X connect 13 0 12 0;
#X connect 13 0 12 1;
#X connect 14 0 13 1;
#X connect 15 0 14 0;
#X connect 16 0 17 0;
#X connect 17 0 24 0;
#X connect 19 0 11 0;
#X connect 19 0 18 0;
#X connect 21 0 22 0;
#X connect 22 0 23 0;
#X connect 23 0 10 0;
#X connect 24 0 13 0;
#X connect 25 0 16 0;
#X connect 25 1 26 0;
#X connect 25 2 27 0;
#X connect 25 3 28 0;
#X connect 25 4 29 0;
#X connect 25 5 30 0;
#X connect 25 6 31 0;
#X connect 25 7 32 0;
#X connect 25 8 33 0;
#X connect 25 9 34 0;
#X connect 25 10 35 0;
#X connect 25 11 36 0;
#X connect 26 0 17 0;
#X connect 27 0 17 0;
#X connect 28 0 17 0;
#X connect 29 0 17 0;
#X connect 30 0 17 0;
#X connect 31 0 17 0;
#X connect 32 0 17 0;
#X connect 33 0 17 0;
#X connect 34 0 17 0;
#X connect 35 0 17 0;
#X connect 36 0 17 0;
