#N canvas 0 23 1366 652 10;
#X declare -lib mrpeach;
#X obj 43 52 import mrpeach;
#X obj 43 102 unpackOSC;
#X obj 43 77 udpreceive 12001;
#X msg 152 78 connect localhost 12000;
#X msg 176 103 disconnect;
#X obj 152 128 udpsend;
#X obj 450 202 packOSC;
#X obj 58 262 t f b;
#X obj 486 489 output~;
#X msg 12 358 45;
#X obj 116 464 mtof;
#X obj 386 -112 key;
#X floatatom 426 -89 5 0 0 0 - - -;
#X msg 35 358 46;
#X msg 128 358 49;
#X msg 161 358 50;
#X msg 195 358 51;
#X msg 295 358 54;
#X msg 361 358 56;
#X obj 443 439 freeverb~;
#X obj 639 486 writesf~ 2;
#X msg 666 397 open markoviser.wav;
#X msg 710 458 stop;
#X obj 607 249 vsl 15 128 0 1 0 0 empty empty empty 0 -9 0 10 -262144
-1 -1 1270 1;
#X msg 588 397 \$1 50;
#X obj 586 439 vline~;
#X obj 523 464 *~;
#X obj 486 464 *~;
#X msg 521 336 dry 0.7;
#X obj 547 -15 tgl 15 0 empty empty empty 17 7 0 10 -262144 -1 -1 0
1;
#X obj 497 49 bng 15 250 50 0 empty empty empty 17 7 0 10 -262144 -1
-1;
#X floatatom 616 61 5 0 0 0 - - -;
#X obj 532 105 select 0;
#X msg 433 156 sendtyped /test s getnextnote;
#X obj 611 84 mod 4;
#X obj 530 52 counter 15;
#X obj 624 -54 select 116;
#X msg 668 164 sendtyped /test s getnextvalue;
#X msg 229 358 52;
#X msg 264 358 53;
#X msg 707 439 start;
#X obj 497 24 metro 70;
#X obj 194 202 bng 15 250 50 0 empty empty empty 17 7 0 10 -262144
-1 -1;
#X obj 295 -66 spigot;
#X obj 295 -89 tgl 15 0 empty empty autoends 17 7 0 10 -262144 -1 -1
0 1;
#X obj 716 -49 select 109;
#X msg 668 189 sendtyped /test s getnextmute;
#X obj 1043 322 bng 15 250 50 0 empty empty empty 17 7 0 10 -262144
-1 -1;
#X floatatom 1033 346 5 0 100 0 - - -;
#X obj 807 -54 select 108;
#X text 826 -90 l;
#X msg 668 214 sendtyped /test s getnextlegato;
#N canvas 7 31 1347 651 kovsyn 1;
#X obj 281 -138 inlet b;
#X obj 561 466 outlet~;
#X obj 212 409 +~;
#X obj 285 419 +~;
#X obj 1186 219 *~;
#X obj 1225 204 vline~;
#X obj 1159 185 osc~ 220;
#X obj 563 63 vline~;
#X obj 415 296 +~;
#X obj 473 65 vline~;
#X obj 292 291 +~;
#X text 30 -152 freq;
#X obj 371 -140 inlet f;
#X text 374 -159 mute;
#X obj 511 298 +~;
#X obj 674 65 vline~;
#X floatatom 16 56 5 0 0 0 - - -;
#X obj 627 -36 bng 15 250 50 0 empty empty empty 17 7 0 10 -262144
-1 -1;
#X obj 280 261 *~ 2;
#X obj 409 269 *~ 3;
#X obj 505 271 *~ 4;
#X obj 279 234 +~;
#X obj 416 245 +~;
#X obj 508 247 +~;
#X obj 1154 143 +~;
#X obj 441 -94 +;
#X obj 29 -134 inlet f;
#X msg 562 39 \$1 5 \, 0 75 5;
#X msg 674 38 \$1 5 \, 0 100 5;
#X obj 603 289 +~;
#X obj 772 66 vline~;
#X obj 600 242 +~;
#X msg 772 39 \$1 5 \, 0 100 5;
#X text 666 -37 detuned partials;
#X obj 374 420 +~;
#X obj 328 423 +~;
#X obj 597 262 *~ 5;
#N canvas 180 237 450 300 partial1 0;
#X obj 27 22 inlet~;
#X obj 45 231 outlet~;
#X obj 237 203 *~;
#X obj 164 129 vline~;
#X obj 47 79 osc~ 220;
#X obj 179 -11 inlet f;
#X obj 178 27 select 0 1 2;
#X obj 164 62 bng 15 250 50 0 empty empty empty 17 7 0 10 -262144 -1
-1;
#X obj 208 59 bng 15 250 50 0 empty empty empty 17 7 0 10 -262144 -1
-1;
#X obj 260 62 bng 15 250 50 0 empty empty empty 17 7 0 10 -262144 -1
-1;
#X msg 150 90 1 5 \, 0 1000 5;
#X msg 241 90 1 5 \, 0 750 5;
#X msg 328 90 1 5 \, 0 500 5;
#X connect 0 0 4 0;
#X connect 2 0 1 0;
#X connect 3 0 2 1;
#X connect 4 0 2 0;
#X connect 5 0 6 0;
#X connect 6 0 7 0;
#X connect 6 1 8 0;
#X connect 6 2 9 0;
#X connect 7 0 10 0;
#X connect 8 0 11 0;
#X connect 9 0 12 0;
#X connect 10 0 3 0;
#X connect 11 0 3 0;
#X connect 12 0 3 0;
#X restore 197 308 pd partial1;
#N canvas 665 119 450 300 partial2 0;
#X obj 27 22 inlet~;
#X obj 45 231 outlet~;
#X obj 237 203 *~;
#X obj 164 129 vline~;
#X obj 47 79 osc~ 220;
#X obj 179 -11 inlet f;
#X obj 178 27 select 0 1 2;
#X obj 164 62 bng 15 250 50 0 empty empty empty 17 7 0 10 -262144 -1
-1;
#X obj 208 59 bng 15 250 50 0 empty empty empty 17 7 0 10 -262144 -1
-1;
#X obj 260 62 bng 15 250 50 0 empty empty empty 17 7 0 10 -262144 -1
-1;
#X msg 150 90 1 5 \, 0 850 5;
#X msg 241 90 0.9 5 \, 0 650 5;
#X msg 328 90 0.8 5 \, 0 350 5;
#X connect 0 0 4 0;
#X connect 2 0 1 0;
#X connect 3 0 2 1;
#X connect 4 0 2 0;
#X connect 5 0 6 0;
#X connect 6 0 7 0;
#X connect 6 1 8 0;
#X connect 6 2 9 0;
#X connect 7 0 10 0;
#X connect 8 0 11 0;
#X connect 9 0 12 0;
#X connect 10 0 3 0;
#X connect 11 0 3 0;
#X connect 12 0 3 0;
#X restore 302 314 pd partial2;
#N canvas 797 90 450 300 partial3 0;
#X obj 27 22 inlet~;
#X obj 45 231 outlet~;
#X obj 237 203 *~;
#X obj 164 129 vline~;
#X obj 47 79 osc~ 220;
#X obj 179 -11 inlet f;
#X obj 178 27 select 0 1 2;
#X obj 164 62 bng 15 250 50 0 empty empty empty 17 7 0 10 -262144 -1
-1;
#X obj 208 59 bng 15 250 50 0 empty empty empty 17 7 0 10 -262144 -1
-1;
#X obj 260 62 bng 15 250 50 0 empty empty empty 17 7 0 10 -262144 -1
-1;
#X msg 150 90 1 5 \, 0 500 5;
#X msg 241 90 0.85 5 \, 0 250 5;
#X msg 337 88 0.75 5 \, 0 150 5;
#X connect 0 0 4 0;
#X connect 2 0 1 0;
#X connect 3 0 2 1;
#X connect 4 0 2 0;
#X connect 5 0 6 0;
#X connect 6 0 7 0;
#X connect 6 1 8 0;
#X connect 6 2 9 0;
#X connect 7 0 10 0;
#X connect 8 0 11 0;
#X connect 9 0 12 0;
#X connect 10 0 3 0;
#X connect 11 0 3 0;
#X connect 12 0 3 0;
#X restore 388 323 pd partial3;
#N canvas 797 90 450 300 partial4 0;
#X obj 27 22 inlet~;
#X obj 45 231 outlet~;
#X obj 237 203 *~;
#X obj 164 129 vline~;
#X obj 47 79 osc~ 220;
#X obj 179 -11 inlet f;
#X obj 178 27 select 0 1 2;
#X obj 164 62 bng 15 250 50 0 empty empty empty 17 7 0 10 -262144 -1
-1;
#X obj 208 59 bng 15 250 50 0 empty empty empty 17 7 0 10 -262144 -1
-1;
#X obj 260 62 bng 15 250 50 0 empty empty empty 17 7 0 10 -262144 -1
-1;
#X msg 150 90 0.4 5 \, 0 250 5;
#X msg 241 90 0.3 5 \, 0 150 5;
#X msg 337 88 0.2 5 \, 0 100 5;
#X connect 0 0 4 0;
#X connect 2 0 1 0;
#X connect 3 0 2 1;
#X connect 4 0 2 0;
#X connect 5 0 6 0;
#X connect 6 0 7 0;
#X connect 6 1 8 0;
#X connect 6 2 9 0;
#X connect 7 0 10 0;
#X connect 8 0 11 0;
#X connect 9 0 12 0;
#X connect 10 0 3 0;
#X connect 11 0 3 0;
#X connect 12 0 3 0;
#X restore 499 325 pd partial4;
#N canvas 360 117 450 300 partial5 0;
#X obj 27 22 inlet~;
#X obj 45 231 outlet~;
#X obj 237 203 *~;
#X obj 164 129 vline~;
#X obj 47 79 osc~ 220;
#X obj 179 -11 inlet f;
#X obj 178 27 select 0 1 2;
#X obj 164 62 bng 15 250 50 0 empty empty empty 17 7 0 10 -262144 -1
-1;
#X obj 208 59 bng 15 250 50 0 empty empty empty 17 7 0 10 -262144 -1
-1;
#X obj 260 62 bng 15 250 50 0 empty empty empty 17 7 0 10 -262144 -1
-1;
#X msg 348 86 0.1 2 \, 0 50 2;
#X msg 132 88 0.25 2 \, 0 150 2;
#X msg 241 90 0.2 5 \, 0 100 5;
#X connect 0 0 4 0;
#X connect 2 0 1 0;
#X connect 3 0 2 1;
#X connect 4 0 2 0;
#X connect 5 0 6 0;
#X connect 6 0 7 0;
#X connect 6 1 8 0;
#X connect 6 2 9 0;
#X connect 7 0 11 0;
#X connect 8 0 12 0;
#X connect 9 0 10 0;
#X connect 10 0 3 0;
#X connect 11 0 3 0;
#X connect 12 0 3 0;
#X restore 592 324 pd partial5;
#X obj 823 -128 r p0;
#X obj 881 -132 r p1;
#X floatatom 829 -91 5 0 0 0 - - -;
#X floatatom 894 -92 5 0 0 0 - - -;
#X obj 413 422 +~;
#X obj 305 -57 bng 15 250 50 0 empty empty empty 17 7 0 10 -262144
-1 -1;
#X obj 346 -54 bng 15 250 50 0 empty empty empty 17 7 0 10 -262144
-1 -1;
#X obj 308 -89 select 0 1;
#X obj 1070 -35 r p0;
#X obj 1195 29 pack;
#X obj 1199 66 unpack f f;
#X obj 1050 221 *~;
#X obj 1068 198 vline~;
#X obj 1016 173 osc~ 220;
#X obj 989 123 +~;
#X obj 1043 28 pack;
#X obj 1047 65 unpack f f;
#X obj 561 441 +~;
#X obj 1217 -27 r p1;
#X obj 687 292 +~;
#X obj 684 241 +~;
#X obj 779 283 +~;
#X obj 776 228 +~;
#X obj 454 422 +~;
#X obj 1070 301 +~;
#X obj 994 309 +~;
#X obj 933 261 *~;
#X obj 951 238 vline~;
#X obj 899 213 osc~ 220;
#X obj 895 162 +~;
#X obj 900 189 *~ 11;
#X obj 681 265 *~ 6;
#X obj 773 256 *~ 7;
#N canvas 797 90 450 300 partial6 0;
#X obj 27 22 inlet~;
#X obj 45 231 outlet~;
#X obj 237 203 *~;
#X obj 164 129 vline~;
#X obj 47 79 osc~ 220;
#X obj 179 -11 inlet f;
#X obj 178 27 select 0 1 2;
#X obj 164 62 bng 15 250 50 0 empty empty empty 17 7 0 10 -262144 -1
-1;
#X obj 208 59 bng 15 250 50 0 empty empty empty 17 7 0 10 -262144 -1
-1;
#X obj 260 62 bng 15 250 50 0 empty empty empty 17 7 0 10 -262144 -1
-1;
#X msg 150 90 0.2 5 \, 0 150 5;
#X msg 241 90 0.1 5 \, 0 100 5;
#X msg 337 88 0.05 5 \, 0 50 5;
#X connect 0 0 4 0;
#X connect 2 0 1 0;
#X connect 3 0 2 1;
#X connect 4 0 2 0;
#X connect 5 0 6 0;
#X connect 6 0 7 0;
#X connect 6 1 8 0;
#X connect 6 2 9 0;
#X connect 7 0 10 0;
#X connect 8 0 11 0;
#X connect 9 0 12 0;
#X connect 10 0 3 0;
#X connect 11 0 3 0;
#X connect 12 0 3 0;
#X restore 675 319 pd partial6;
#N canvas 360 117 450 300 partial7 0;
#X obj 27 22 inlet~;
#X obj 45 231 outlet~;
#X obj 237 203 *~;
#X obj 164 129 vline~;
#X obj 47 79 osc~ 220;
#X obj 179 -11 inlet f;
#X obj 178 27 select 0 1 2;
#X obj 164 62 bng 15 250 50 0 empty empty empty 17 7 0 10 -262144 -1
-1;
#X obj 208 59 bng 15 250 50 0 empty empty empty 17 7 0 10 -262144 -1
-1;
#X obj 260 62 bng 15 250 50 0 empty empty empty 17 7 0 10 -262144 -1
-1;
#X msg 150 90 0.1 1 \, 0 150 1;
#X msg 241 90 0.05 1 \, 0 100 1;
#X msg 348 86 0.05 1 \, 0 50 1;
#X connect 0 0 4 0;
#X connect 2 0 1 0;
#X connect 3 0 2 1;
#X connect 4 0 2 0;
#X connect 5 0 6 0;
#X connect 6 0 7 0;
#X connect 6 1 8 0;
#X connect 6 2 9 0;
#X connect 7 0 10 0;
#X connect 8 0 11 0;
#X connect 9 0 12 0;
#X connect 10 0 3 0;
#X connect 11 0 3 0;
#X connect 12 0 3 0;
#X restore 768 318 pd partial7;
#X msg 473 41 \$1 5 \, 0 50 5;
#X obj 285 396 *~;
#X obj 52 210 r p0;
#X obj 382 401 *~;
#X obj 24 239 * 0.8;
#X obj 22 263 + 0.2;
#X msg 14 303 \$1 10;
#X obj 11 335 line~;
#X obj 457 403 *~;
#X msg 1215 151 \$1 1 \, 0 10 1;
#X obj 1017 149 *~ 9;
#X obj 173 141 vline~;
#X obj 107 137 +;
#X obj 52 129 +;
#X msg 63 178 \$1 0;
#X obj 74 239 * 0.8;
#X obj 72 263 + 0.2;
#X msg 64 303 \$1 10;
#X obj 61 335 line~;
#X obj 102 210 r p1;
#X obj 331 395 *~;
#X obj 418 400 *~;
#X obj 208 95 list;
#X floatatom 254 97 5 0 0 0 - - -;
#X obj 233 132 print;
#X obj 1214 95 / 10;
#X obj 672 -134 inlet f;
#X text 671 -154 velocity;
#X obj 250 -65 s trig;
#X obj 827 -69 r trig;
#X text 261 -158 trigger/legato;
#X obj 82 -143 r p0;
#X obj 50 30 *;
#X msg 48 -8 1;
#X msg 87 -6 2;
#X obj 63 -82 &;
#X obj 127 -142 r p1;
#X text 17 166 comment;
#X obj 47 -46 select 0 1 2;
#X obj 151 -80 |;
#X obj 148 -44 select 0 1;
#X msg 146 -13 2;
#X msg 122 6 0.5;
#X obj 60 -108 > 0.9;
#X obj 103 -106 > 0.9;
#X obj 151 -106 > 0.3;
#X obj 191 -106 > 0.3;
#X obj 1079 142 + 0;
#X obj 1220 126 + 0;
#X obj 209 276 +~;
#X obj 319 141 *~;
#X obj 498 -130 inlet b;
#X text 501 -150 vibrato;
#X obj 511 -90 bng 15 250 50 0 empty empty empty 17 7 0 10 -262144
-1 -1;
#X obj 387 101 vline~;
#X msg 353 64 0 1;
#X obj 383 4 delay 200;
#X obj 301 77 osc~ 5;
#X msg 394 64 3 200;
#X obj 285 27 random 100;
#X obj 244 58 + 50;
#X obj 1160 161 *~ 13;
#X obj 950 162 + 3;
#X obj 934 134 random 2;
#X obj 951 185 / 80;
#X msg 955 214 \$1 1 \, 0 12 1;
#X msg 1072 174 \$1 5 \, 0 100 5;
#X obj 1062 94 / 15;
#X obj 735 4 random 25;
#X obj 637 3 random 15;
#X obj 547 4 random 10;
#X obj 482 4 random 5;
#X connect 0 0 25 0;
#X connect 0 0 49 0;
#X connect 0 0 132 0;
#X connect 2 0 3 0;
#X connect 3 0 35 0;
#X connect 4 0 66 1;
#X connect 5 0 4 1;
#X connect 6 0 4 0;
#X connect 7 0 8 1;
#X connect 8 0 39 0;
#X connect 9 0 10 1;
#X connect 10 0 38 0;
#X connect 12 0 25 1;
#X connect 14 0 40 0;
#X connect 15 0 14 1;
#X connect 16 0 56 0;
#X connect 16 0 71 0;
#X connect 16 0 89 1;
#X connect 16 0 90 1;
#X connect 16 0 24 0;
#X connect 17 0 145 0;
#X connect 17 0 146 0;
#X connect 17 0 147 0;
#X connect 17 0 148 0;
#X connect 18 0 10 0;
#X connect 19 0 8 0;
#X connect 20 0 14 0;
#X connect 21 0 18 0;
#X connect 22 0 19 0;
#X connect 23 0 20 0;
#X connect 24 0 138 0;
#X connect 25 0 37 1;
#X connect 25 0 38 1;
#X connect 25 0 39 1;
#X connect 25 0 40 1;
#X connect 25 0 41 1;
#X connect 25 0 75 1;
#X connect 25 0 76 1;
#X connect 26 0 109 0;
#X connect 27 0 7 0;
#X connect 28 0 15 0;
#X connect 29 0 41 0;
#X connect 30 0 29 1;
#X connect 30 0 61 1;
#X connect 30 0 63 1;
#X connect 31 0 36 0;
#X connect 32 0 30 0;
#X connect 34 0 46 0;
#X connect 35 0 34 0;
#X connect 36 0 29 0;
#X connect 37 0 2 0;
#X connect 38 0 2 1;
#X connect 39 0 78 0;
#X connect 40 0 97 0;
#X connect 41 0 80 0;
#X connect 42 0 44 0;
#X connect 43 0 45 0;
#X connect 46 0 65 0;
#X connect 47 0 90 0;
#X connect 48 0 89 0;
#X connect 48 0 136 0;
#X connect 49 0 47 0;
#X connect 49 0 105 0;
#X connect 49 1 48 0;
#X connect 50 0 57 1;
#X connect 51 0 52 0;
#X connect 52 1 102 0;
#X connect 53 0 66 0;
#X connect 54 0 53 1;
#X connect 55 0 53 0;
#X connect 56 0 87 0;
#X connect 57 0 58 0;
#X connect 58 1 144 0;
#X connect 59 0 1 0;
#X connect 60 0 51 1;
#X connect 61 0 75 0;
#X connect 62 0 73 0;
#X connect 63 0 76 0;
#X connect 64 0 74 0;
#X connect 65 0 59 0;
#X connect 66 0 67 1;
#X connect 67 0 59 1;
#X connect 68 0 67 0;
#X connect 69 0 68 1;
#X connect 70 0 68 0;
#X connect 71 0 72 0;
#X connect 72 0 70 0;
#X connect 73 0 61 0;
#X connect 74 0 63 0;
#X connect 75 0 98 0;
#X connect 76 0 85 0;
#X connect 77 0 9 0;
#X connect 78 0 3 1;
#X connect 79 0 81 0;
#X connect 80 0 34 1;
#X connect 81 0 82 0;
#X connect 82 0 83 0;
#X connect 83 0 84 0;
#X connect 84 0 78 1;
#X connect 84 0 80 1;
#X connect 84 0 85 1;
#X connect 85 0 65 1;
#X connect 86 0 5 0;
#X connect 87 0 55 0;
#X connect 88 0 21 0;
#X connect 88 0 22 0;
#X connect 88 0 23 0;
#X connect 88 0 31 0;
#X connect 88 0 62 0;
#X connect 88 0 64 0;
#X connect 88 0 126 0;
#X connect 89 0 99 0;
#X connect 90 0 91 0;
#X connect 91 0 88 0;
#X connect 92 0 93 0;
#X connect 93 0 94 0;
#X connect 94 0 95 0;
#X connect 95 0 97 1;
#X connect 95 0 98 1;
#X connect 96 0 92 0;
#X connect 97 0 35 1;
#X connect 98 0 46 1;
#X connect 99 0 88 0;
#X connect 99 0 101 0;
#X connect 102 0 125 0;
#X connect 106 0 17 0;
#X connect 106 0 57 0;
#X connect 106 0 51 0;
#X connect 106 0 140 0;
#X connect 108 0 120 0;
#X connect 108 0 122 0;
#X connect 109 0 16 0;
#X connect 110 0 109 1;
#X connect 111 0 109 1;
#X connect 112 0 115 0;
#X connect 113 0 121 0;
#X connect 115 0 110 0;
#X connect 115 1 111 0;
#X connect 115 2 119 0;
#X connect 116 0 117 0;
#X connect 117 0 118 0;
#X connect 118 0 115 0;
#X connect 119 0 109 1;
#X connect 120 0 112 0;
#X connect 121 0 112 1;
#X connect 122 0 116 0;
#X connect 123 0 116 1;
#X connect 124 0 143 0;
#X connect 125 0 86 0;
#X connect 126 0 37 0;
#X connect 127 0 126 1;
#X connect 127 0 21 1;
#X connect 127 0 22 1;
#X connect 127 0 23 1;
#X connect 127 0 31 1;
#X connect 127 0 62 1;
#X connect 127 0 64 1;
#X connect 128 0 130 0;
#X connect 130 0 133 0;
#X connect 131 0 127 1;
#X connect 132 0 131 0;
#X connect 133 0 135 0;
#X connect 134 0 127 0;
#X connect 135 0 131 0;
#X connect 136 0 137 0;
#X connect 137 0 99 1;
#X connect 137 0 100 0;
#X connect 138 0 6 0;
#X connect 139 0 141 0;
#X connect 140 0 139 0;
#X connect 141 0 142 0;
#X connect 142 0 69 0;
#X connect 143 0 54 0;
#X connect 144 0 124 0;
#X connect 145 0 32 0;
#X connect 146 0 28 0;
#X connect 147 0 27 0;
#X connect 148 0 77 0;
#X restore 423 379 pd kovsyn;
#X msg 1022 85 close;
#X msg 1049 111 info;
#N canvas 722 95 441 343 ANALOG-INPUT 0;
#X obj 121 70 r \$0-arduino-out;
#X obj 121 108 spigot 0;
#X obj 183 105 tgl 20 0 empty empty empty 0 -6 0 8 -258699 -1 -1 1
1;
#X text 30 24 Analog Inputs of the Arduino-Board:;
#X text 211 107 <- enable analog inputs;
#X text 25 283 NOTE: connect the analog pins that you don't use to
the ground \, if you want to avoid flickering of the values !;
#X floatatom 22 226 5 0 0 3 a0 - -;
#X floatatom 68 226 5 0 0 3 a1 - -;
#X floatatom 114 226 5 0 0 3 a2 - -;
#X floatatom 160 226 5 0 0 3 a3 - -;
#X floatatom 206 226 5 0 0 3 a4 - -;
#X floatatom 252 226 5 0 0 3 a5 - -;
#X floatatom 298 226 5 0 0 3 a6 - -;
#X floatatom 344 226 5 0 0 3 a7 - -;
#X obj 121 147 route analog;
#X obj 121 169 route 0 1 2 3 4 5 6 7;
#N canvas 0 22 499 396 display 0;
#X obj 6 7 inlet;
#X obj 6 28 mapping/resample 100;
#X obj 6 50 outlet;
#X obj 54 50 inlet;
#X obj 54 71 mapping/resample 100;
#X obj 54 93 outlet;
#X obj 103 93 inlet;
#X obj 103 114 mapping/resample 100;
#X obj 103 136 outlet;
#X obj 151 136 inlet;
#X obj 151 157 mapping/resample 100;
#X obj 151 179 outlet;
#X obj 200 179 inlet;
#X obj 200 200 mapping/resample 100;
#X obj 200 222 outlet;
#X obj 247 222 inlet;
#X obj 247 243 mapping/resample 100;
#X obj 247 265 outlet;
#X obj 295 265 inlet;
#X obj 295 286 mapping/resample 100;
#X obj 295 308 outlet;
#X obj 345 308 inlet;
#X obj 345 329 mapping/resample 100;
#X obj 345 351 outlet;
#X connect 0 0 1 0;
#X connect 1 0 2 0;
#X connect 3 0 4 0;
#X connect 4 0 5 0;
#X connect 6 0 7 0;
#X connect 7 0 8 0;
#X connect 9 0 10 0;
#X connect 10 0 11 0;
#X connect 12 0 13 0;
#X connect 13 0 14 0;
#X connect 15 0 16 0;
#X connect 16 0 17 0;
#X connect 18 0 19 0;
#X connect 19 0 20 0;
#X connect 21 0 22 0;
#X connect 22 0 23 0;
#X restore 45 200 pd display values without pegging the CPU;
#X obj 22 267 s a0;
#X obj 65 267 s a1;
#X obj 264 70 loadbang;
#X connect 0 0 1 0;
#X connect 1 0 14 0;
#X connect 2 0 1 1;
#X connect 6 0 17 0;
#X connect 7 0 18 0;
#X connect 14 0 15 0;
#X connect 15 0 16 0;
#X connect 15 1 16 1;
#X connect 15 2 16 2;
#X connect 15 3 16 3;
#X connect 15 4 16 4;
#X connect 15 5 16 5;
#X connect 15 6 16 6;
#X connect 15 7 16 7;
#X connect 16 0 6 0;
#X connect 16 1 7 0;
#X connect 16 2 8 0;
#X connect 16 3 9 0;
#X connect 16 4 10 0;
#X connect 16 5 11 0;
#X connect 16 6 12 0;
#X connect 16 7 13 0;
#X connect 19 0 2 0;
#X restore 1007 229 pd ANALOG-INPUT;
#X obj 1013 -4 send \$0-arduino-out;
#X obj 1013 -54 receive \$0-arduino;
#X obj 1007 204 send \$0-arduino;
#X msg 1049 141 devices;
#X msg 1049 141 version;
#X msg 1022 60 open 1;
#X msg 1049 184 firmware;
#X obj 1013 -29 arduino 1;
#X obj 897 333 r a0;
#X floatatom 988 405 5 0 0 0 - - -;
#X obj 1033 370 / 100;
#X obj 1096 322 r a1;
#X floatatom 1141 398 5 0 0 0 - - -;
#X msg 300 35 sendtyped /lerp1 f \$1;
#X msg 349 82 sendtyped /lerp2 f \$1;
#X obj 1211 320 bng 15 250 50 0 empty empty empty 17 7 0 10 -262144
-1 -1;
#X floatatom 1187 344 5 0 100 0 - - -;
#X obj 1189 366 / 100;
#X obj 1099 358 spigot;
#X obj 1135 323 tgl 15 0 empty empty empty 17 7 0 10 -262144 -1 -1
0 1;
#X obj 897 358 spigot;
#X obj 943 333 tgl 15 0 empty empty empty 17 7 0 10 -262144 -1 -1 0
1;
#X floatatom 547 8 5 0 0 0 - - -;
#X msg 607 222 0.1;
#X obj 535 202 loadbang;
#X obj 594 24 + 70;
#X obj 988 429 clip 0 0.8;
#X obj 988 454 * 1.25;
#X obj 1143 429 clip 0 0.8;
#X obj 1143 454 * 1.25;
#X obj 990 496 s p0;
#X obj 1136 496 s p1;
#X obj 300 10 r p0;
#X obj 349 57 r p1;
#X obj 630 -18 r p1;
#X obj 532 130 send clk;
#X obj 1158 291 r clk;
#X obj 981 304 r clk;
#X text 749 -30 m;
#X obj 1036 399 spigot;
#X obj 1080 378 tgl 15 0 empty empty empty 17 7 0 10 -262144 -1 -1
0 1;
#X obj 1186 392 spigot;
#X obj 1230 371 tgl 15 0 empty empty empty 17 7 0 10 -262144 -1 -1
0 1;
#X obj 58 287 select 0 1 2 3 4 5 6 7 8 9 10 11 12;
#X msg 391 358 57;
#X msg 328 358 55;
#X msg 97 358 48;
#X obj 74 163 routeOSC /state /value /toggle /mute /legato /velocity
;
#X obj 545 -54 select 32;
#X text 553 -83 space;
#X obj 469 -54 select 115;
#X text 490 -95 s;
#X floatatom 1140 474 5 0 0 0 - - -;
#X floatatom 998 476 5 0 0 0 - - -;
#X msg 66 358 47;
#X obj 631 10 * -2;
#X obj 898 -50 select 112;
#X text 929 -78 p;
#X floatatom 829 -19 5 0 15 0 - - -;
#X obj 408 248 tgl 15 0 empty empty empty 17 7 0 10 -262144 -1 -1 0
1;
#X text 432 246 toggle from processing;
#X obj 289 286 spigot;
#X obj 824 46 counter;
#X msg 831 1 set \$1;
#X obj 822 93 select 0;
#X obj 823 119 bng 15 250 50 0 empty empty empty 17 7 0 10 -262144
-1 -1;
#X obj 911 11 bng 15 250 50 0 empty empty empty 17 7 0 10 -262144 -1
-1;
#X msg 941 12 down;
#X text 875 -21 phrase length: read from accelerometer;
#X floatatom 821 69 5 0 0 0 - - -;
#X text 104 186 2nd outlet: value -> stop after empty ticks;
#X obj 169 -24 loadbang;
#X obj 245 -24 delay 100;
#X connect 1 0 103 0;
#X connect 2 0 1 0;
#X connect 3 0 5 0;
#X connect 4 0 5 0;
#X connect 6 0 5 0;
#X connect 7 0 99 0;
#X connect 9 0 10 0;
#X connect 10 0 52 0;
#X connect 11 0 12 0;
#X connect 12 0 36 0;
#X connect 12 0 45 0;
#X connect 12 0 49 0;
#X connect 12 0 104 0;
#X connect 12 0 106 0;
#X connect 12 0 112 0;
#X connect 13 0 10 0;
#X connect 14 0 10 0;
#X connect 15 0 10 0;
#X connect 16 0 10 0;
#X connect 17 0 10 0;
#X connect 18 0 10 0;
#X connect 19 0 27 0;
#X connect 19 1 26 0;
#X connect 21 0 20 0;
#X connect 22 0 20 0;
#X connect 23 0 24 0;
#X connect 24 0 25 0;
#X connect 25 0 26 1;
#X connect 25 0 27 1;
#X connect 26 0 8 1;
#X connect 26 0 20 1;
#X connect 27 0 8 0;
#X connect 27 0 20 0;
#X connect 28 0 19 0;
#X connect 29 0 41 0;
#X connect 30 0 35 0;
#X connect 31 0 34 0;
#X connect 32 0 33 0;
#X connect 32 0 37 0;
#X connect 32 0 46 0;
#X connect 32 0 51 0;
#X connect 32 0 91 0;
#X connect 33 0 6 0;
#X connect 34 0 32 0;
#X connect 35 0 31 0;
#X connect 36 0 37 0;
#X connect 37 0 6 0;
#X connect 38 0 10 0;
#X connect 39 0 10 0;
#X connect 40 0 20 0;
#X connect 41 0 30 0;
#X connect 42 0 117 0;
#X connect 43 0 29 0;
#X connect 44 0 43 1;
#X connect 45 0 46 0;
#X connect 46 0 6 0;
#X connect 47 0 48 0;
#X connect 48 0 66 0;
#X connect 49 0 51 0;
#X connect 51 0 6 0;
#X connect 52 0 19 0;
#X connect 52 0 19 1;
#X connect 53 0 58 0;
#X connect 54 0 58 0;
#X connect 57 0 63 0;
#X connect 59 0 58 0;
#X connect 60 0 58 0;
#X connect 61 0 58 0;
#X connect 62 0 58 0;
#X connect 63 0 56 0;
#X connect 64 0 76 0;
#X connect 65 0 82 0;
#X connect 66 0 95 0;
#X connect 67 0 74 0;
#X connect 69 0 6 0;
#X connect 70 0 6 0;
#X connect 71 0 72 0;
#X connect 72 0 73 0;
#X connect 73 0 97 0;
#X connect 74 0 68 0;
#X connect 75 0 74 1;
#X connect 76 0 65 0;
#X connect 77 0 76 1;
#X connect 78 0 41 1;
#X connect 79 0 23 0;
#X connect 80 0 79 0;
#X connect 80 0 28 0;
#X connect 81 0 78 0;
#X connect 82 0 83 0;
#X connect 83 0 109 0;
#X connect 84 0 85 0;
#X connect 85 0 108 0;
#X connect 88 0 69 0;
#X connect 89 0 70 0;
#X connect 90 0 111 0;
#X connect 92 0 72 0;
#X connect 92 0 68 0;
#X connect 93 0 65 0;
#X connect 93 0 48 0;
#X connect 95 0 82 0;
#X connect 96 0 95 1;
#X connect 97 0 84 0;
#X connect 98 0 97 1;
#X connect 99 0 9 0;
#X connect 99 1 13 0;
#X connect 99 2 110 0;
#X connect 99 3 102 0;
#X connect 99 4 14 0;
#X connect 99 5 15 0;
#X connect 99 6 16 0;
#X connect 99 7 38 0;
#X connect 99 8 39 0;
#X connect 99 9 17 0;
#X connect 99 10 101 0;
#X connect 99 11 18 0;
#X connect 99 12 100 0;
#X connect 100 0 10 0;
#X connect 101 0 10 0;
#X connect 102 0 10 0;
#X connect 103 0 7 0;
#X connect 103 1 34 1;
#X connect 103 2 42 0;
#X connect 103 3 52 2;
#X connect 103 4 52 1;
#X connect 103 4 118 0;
#X connect 103 5 52 4;
#X connect 104 0 29 0;
#X connect 106 0 33 0;
#X connect 108 0 87 0;
#X connect 109 0 86 0;
#X connect 110 0 10 0;
#X connect 111 0 81 0;
#X connect 112 0 29 0;
#X connect 112 0 114 0;
#X connect 114 0 119 0;
#X connect 115 0 117 1;
#X connect 117 0 52 3;
#X connect 117 0 43 0;
#X connect 118 0 125 0;
#X connect 119 0 118 0;
#X connect 120 0 121 0;
#X connect 121 0 29 0;
#X connect 121 0 35 2;
#X connect 122 0 118 2;
#X connect 123 0 118 0;
#X connect 125 0 120 0;
#X connect 127 0 3 0;
#X connect 127 0 128 0;
#X connect 128 0 29 0;
